<?xml version="1.0" encoding="utf-8"?>
<!-- Generator: Adobe Illustrator 24.2.3, SVG Export Plug-In . SVG Version: 6.00 Build 0)  -->
<svg version="1.1" id="Layer_1" xmlns="http://www.w3.org/2000/svg" xmlns:xlink="http://www.w3.org/1999/xlink" x="0px" y="0px"
	 viewBox="0 0 48 48" style="enable-background:new 0 0 48 48;" xml:space="preserve">
<style type="text/css">
	.st0{fill:#FFFFFF;}
</style>
<g>
	<path class="st0" d="M38,25.4H10c-0.8,0-1.4-0.6-1.4-1.4s0.6-1.4,1.4-1.4h28c0.8,0,1.4,0.6,1.4,1.4S38.8,25.4,38,25.4z"/>
</g>
<g>
	<path class="st0" d="M30,33.4c-0.4,0-0.7-0.1-1-0.4c-0.5-0.5-0.5-1.4,0-1.9l8-8c0.5-0.5,1.4-0.5,1.9,0c0.5,0.5,0.5,1.4,0,1.9l-8,8
		C30.7,33.2,30.4,33.4,30,33.4z"/>
</g>
<g>
	<path class="st0" d="M38,25.4c-0.4,0-0.7-0.1-1-0.4l-8-8c-0.5-0.5-0.5-1.4,0-1.9c0.5-0.5,1.4-0.5,1.9,0l8,8c0.5,0.5,0.5,1.4,0,1.9
		C38.7,25.2,38.4,25.4,38,25.4z"/>
</g>
</svg>
