<?xml version="1.0" encoding="utf-8"?>
<!-- Generator: Adobe Illustrator 24.2.3, SVG Export Plug-In . SVG Version: 6.00 Build 0)  -->
<svg version="1.1" id="Layer_1" xmlns="http://www.w3.org/2000/svg" xmlns:xlink="http://www.w3.org/1999/xlink" x="0px" y="0px"
	 viewBox="0 0 37 37" style="enable-background:new 0 0 37 37;" xml:space="preserve">
<g>
	<path d="M18.5,19.4c-2.6,0-4.9-2.2-4.9-4.9s2.2-4.9,4.9-4.9s4.9,2.2,4.9,4.9S21.1,19.4,18.5,19.4z M18.5,12.4c-1.1,0-2.1,1-2.1,2.1
		s1,2.1,2.1,2.1s2.1-1,2.1-2.1S19.6,12.4,18.5,12.4z"/>
</g>
<g>
	<path d="M18.5,26.4c-2.7,0-4.9-2-4.9-4.4s2.2-4.4,4.9-4.4c2.7,0,4.9,2,4.9,4.4S21.2,26.4,18.5,26.4z M18.5,20.4
		c-1.2,0-2.1,0.7-2.1,1.6s1,1.6,2.1,1.6s2.1-0.7,2.1-1.6S19.7,20.4,18.5,20.4z"/>
</g>
<g>
	<path d="M18.5,32.4c-7.7,0-13.9-6.2-13.9-13.9c0-7.7,6.2-13.9,13.9-13.9c7.7,0,13.9,6.2,13.9,13.9C32.4,26.2,26.2,32.4,18.5,32.4z
		 M18.5,7.4c-6.1,0-11.1,5-11.1,11.1c0,6.1,5,11.1,11.1,11.1c6.1,0,11.1-5,11.1-11.1C29.6,12.4,24.6,7.4,18.5,7.4z"/>
</g>
</svg>
