<?xml version="1.0" encoding="utf-8"?>
<!-- Generator: Adobe Illustrator 24.2.3, SVG Export Plug-In . SVG Version: 6.00 Build 0)  -->
<svg version="1.1" id="Layer_1" xmlns="http://www.w3.org/2000/svg" xmlns:xlink="http://www.w3.org/1999/xlink" x="0px" y="0px"
	 viewBox="0 0 44 48" style="enable-background:new 0 0 44 48;" xml:space="preserve">
<g>
	<g>
		<path d="M22,39.9c-0.2,0-0.5-0.1-0.7-0.2L6.6,31.5c-0.4-0.2-0.7-0.7-0.7-1.2V13.8c0-0.5,0.3-1,0.7-1.2l14.7-8.3
			c0.4-0.2,0.9-0.2,1.4,0l14.7,8.3c0.4,0.2,0.7,0.7,0.7,1.2v16.5c0,0.5-0.3,1-0.7,1.2l-14.7,8.2C22.5,39.8,22.2,39.9,22,39.9z
			 M8.7,29.5L22,36.9l13.3-7.4V14.6L22,7.1L8.7,14.6V29.5z"/>
	</g>
	<g>
		<path d="M22,23.4c-0.5,0-0.9-0.3-1.2-0.7c-0.4-0.7-0.1-1.5,0.5-1.9L36,12.5c0.7-0.4,1.5-0.1,1.9,0.5c0.4,0.7,0.1,1.5-0.5,1.9
			l-14.7,8.3C22.5,23.3,22.2,23.4,22,23.4z"/>
	</g>
	<g>
		<path d="M22,39.9c-0.8,0-1.4-0.6-1.4-1.4V22c0-0.8,0.6-1.4,1.4-1.4s1.4,0.6,1.4,1.4v16.5C23.4,39.3,22.8,39.9,22,39.9z"/>
	</g>
	<g>
		<path d="M22,23.4c-0.2,0-0.5-0.1-0.7-0.2L6.6,15c-0.7-0.4-0.9-1.2-0.5-1.9c0.4-0.7,1.2-0.9,1.9-0.5l14.7,8.2
			c0.7,0.4,0.9,1.2,0.5,1.9C22.9,23.1,22.5,23.4,22,23.4z"/>
	</g>
	<g>
		<path d="M14.6,19.3c-0.5,0-0.9-0.3-1.2-0.7c-0.4-0.7-0.1-1.5,0.5-1.9l14.7-8.3c0.7-0.4,1.5-0.1,1.9,0.5c0.4,0.7,0.1,1.5-0.5,1.9
			l-14.7,8.3C15.1,19.2,14.8,19.3,14.6,19.3z"/>
	</g>
</g>
</svg>
