<?xml version="1.0" encoding="utf-8"?>
<!-- Generator: Adobe Illustrator 24.2.3, SVG Export Plug-In . SVG Version: 6.00 Build 0)  -->
<svg version="1.1" id="Layer_1" xmlns="http://www.w3.org/2000/svg" xmlns:xlink="http://www.w3.org/1999/xlink" x="0px" y="0px"
	 viewBox="0 0 28 28" style="enable-background:new 0 0 28 28;" xml:space="preserve">
<g>
	<path d="M20,27.4H8c-0.8,0-1.4-0.3-1.9-0.9c-0.3-0.3-0.7-0.9-0.7-1.7v-2.4c-0.8-0.2-1.5-0.7-2.1-1.3c-1-0.9-1.5-2.1-1.5-3.5v-5.4
		c0-2.5,1.9-4.4,4.4-4.4h2.4c2.3,0,4.1,1.7,4.4,3.9l0.6-0.2c0.2-0.1,0.3-0.1,0.5-0.1h8.4c1.1,0,2.2,0.5,2.8,1.2c0.7,0.8,1,1.7,1,2.6
		v2.4c0,1.2-0.5,2.5-1.5,3.4c-0.6,0.6-1.3,1.1-2.1,1.3v2.4C22.6,26.3,21.5,27.4,20,27.4z M8.2,24.6h11.6v-2H8.2L8.2,24.6
		C8.2,24.6,8.2,24.6,8.2,24.6z M6.8,19.8h14.4c0.6,0,1.1-0.2,1.5-0.6c0,0,0-0.1,0.1-0.1c0.4-0.4,0.7-1,0.7-1.5v-2.4
		c0-0.2-0.1-0.5-0.4-0.8c-0.1-0.1-0.3-0.2-0.6-0.2h-8.2L12,15c-0.8,1-2,1.6-3.4,1.6H7.4c-0.7,0-1.2-0.5-1.4-1.1
		c-0.1-0.7,0.3-1.3,0.9-1.5l3.2-1.2c0.1-0.2,0.1-0.3,0.1-0.5c0-0.9-0.7-1.6-1.6-1.6H6.2c-0.9,0-1.6,0.7-1.6,1.6v5.4
		c0,0.6,0.2,1.1,0.6,1.5c0,0,0.1,0,0.1,0.1C5.7,19.6,6.3,19.8,6.8,19.8z"/>
</g>
<g>
	<path d="M22.4,14.2H11.5c-0.8,0-1.4-0.6-1.4-1.4s0.6-1.4,1.4-1.4h10.9c1.2,0,2.2-1,2.2-2.2V6.8c0-2-1.5-3.4-3.4-3.4H6.8
		c-2,0-3.4,1.5-3.4,3.4v2.4c0,0.5,0.2,0.9,0.3,1.1c0.5,0.2,0.9,0.7,0.9,1.3C4.6,12.4,4,13,3.2,13c-1.6,0-2.6-2-2.6-3.8V6.8
		c0-3.5,2.7-6.2,6.2-6.2h14.4c3.5,0,6.2,2.7,6.2,6.2v2.4C27.4,11.9,25.1,14.2,22.4,14.2z"/>
</g>
</svg>
