<?xml version="1.0" encoding="utf-8"?>
<!-- Generator: Adobe Illustrator 24.2.3, SVG Export Plug-In . SVG Version: 6.00 Build 0)  -->
<svg version="1.1" id="Layer_1" xmlns="http://www.w3.org/2000/svg" xmlns:xlink="http://www.w3.org/1999/xlink" x="0px" y="0px"
	 viewBox="0 0 31 31" style="enable-background:new 0 0 31 31;" xml:space="preserve">
<g>
	<path d="M7.7,28.5c-2.1,0-3.8-1.7-4-3.9c0-2.2,1.8-4.1,4-4.1c2.2,0,4,1.8,4,4S9.9,28.5,7.7,28.5z M7.7,23.3c-0.6,0-1.2,0.6-1.2,1.2
		c0,0.7,0.6,1.2,1.2,1.2c0.6,0,1.2-0.6,1.2-1.2S8.3,23.3,7.7,23.3z"/>
</g>
<g>
	<path d="M22,28.5c-2.3,0-4-1.7-4-4c0-2.2,1.8-4,4-4s4,1.8,4,4S24.2,28.5,22,28.5z M22,23.3c-0.6,0-1.2,0.6-1.2,1.2
		c0,0.7,0.5,1.2,1.2,1.2c0.6,0,1.2-0.6,1.2-1.2S22.6,23.3,22,23.3z"/>
</g>
<g>
	<path d="M22,23.4H7.7c-0.8,0-1.4-0.6-1.4-1.4V5.3H5.2c-0.8,0-1.4-0.6-1.4-1.4s0.6-1.4,1.4-1.4h2.5c0.8,0,1.4,0.6,1.4,1.4v16.7H22
		c0.8,0,1.4,0.6,1.4,1.4S22.8,23.4,22,23.4z"/>
</g>
<g>
	<path d="M24.6,18.2H7.8c-0.8,0-1.4-0.6-1.4-1.4s0.6-1.4,1.4-1.4h15.6l0.9-6.4L7.7,7.9C6.9,7.8,6.4,7.2,6.4,6.4
		c0.1-0.8,0.7-1.3,1.5-1.3L26,6.4c0.4,0,0.7,0.2,1,0.5s0.3,0.7,0.3,1.1L26,17C25.9,17.7,25.3,18.2,24.6,18.2z"/>
</g>
</svg>
