<?xml version="1.0" encoding="utf-8"?>
<!-- Generator: Adobe Illustrator 24.2.3, SVG Export Plug-In . SVG Version: 6.00 Build 0)  -->
<svg version="1.1" id="Layer_1" xmlns="http://www.w3.org/2000/svg" xmlns:xlink="http://www.w3.org/1999/xlink" x="0px" y="0px"
	 viewBox="0 0 36 36" style="enable-background:new 0 0 36 36;" xml:space="preserve">
<g>
	<path d="M10.5,29.9c-2.5,0-4.4-1.9-4.4-4.4s1.9-4.4,4.4-4.4s4.4,1.9,4.4,4.4S13,29.9,10.5,29.9z M10.5,23.9c-0.9,0-1.6,0.7-1.6,1.6
		s0.7,1.6,1.6,1.6s1.6-0.7,1.6-1.6S11.4,23.9,10.5,23.9z"/>
</g>
<g>
	<path d="M25.5,29.9c-2.5,0-4.4-1.9-4.4-4.4s1.9-4.4,4.4-4.4s4.4,1.9,4.4,4.4S28,29.9,25.5,29.9z M25.5,23.9c-0.9,0-1.6,0.7-1.6,1.6
		s0.7,1.6,1.6,1.6s1.6-0.7,1.6-1.6S26.4,23.9,25.5,23.9z"/>
</g>
<g>
	<path d="M19.5,26.9C19.5,26.9,19.5,26.9,19.5,26.9h-6c-0.8,0-1.4-0.6-1.4-1.4s0.6-1.4,1.4-1.4h2.9L2,8.4C1.6,8,1.5,7.4,1.7,6.9
		C2,6.4,2.5,6.1,3,6.1h16.5c0.8,0,1.4,0.6,1.4,1.4v0.1H27c0.5,0,0.9,0.3,1.2,0.7l4.5,7.5c0.1,0.1,0.1,0.2,0.2,0.4
		c0,0.1,0.1,0.3,0,0.4v9c0,0.8-0.6,1.4-1.4,1.4h-3c-0.4,0-0.7-0.1-1-0.4l-6.7-6.7v4.3h1.6c0.8,0,1.4,0.6,1.4,1.4s-0.6,1.4-1.4,1.4
		H19.5C19.5,26.9,19.5,26.9,19.5,26.9z M29.1,24.1h1.1v-6.3h-7.3L29.1,24.1z M6.1,8.9l12,13.1v-5.5c0,0,0,0,0,0V8.9H6.1z M20.9,15.1
		h8.2l-2.8-4.8h-5.3V15.1z M7.5,26.9h-3c-0.8,0-1.4-0.6-1.4-1.4v-6c0-0.6,0.4-1.2,1.1-1.3c0.6-0.1,1.3,0.2,1.5,0.7l3,6
		c0.2,0.4,0.2,0.9-0.1,1.3C8.4,26.6,8,26.9,7.5,26.9z"/>
</g>
<g>
	<path d="M10.5,14.9h-6c-0.8,0-1.4-0.6-1.4-1.4s0.6-1.4,1.4-1.4h6c0.8,0,1.4,0.6,1.4,1.4S11.3,14.9,10.5,14.9z"/>
</g>
</svg>
