<svg width="33" height="27" viewBox="0 0 33 27" fill="none" xmlns="http://www.w3.org/2000/svg">
<path d="M32.5875 11.8125H31.35V8.01562C31.35 6.38613 30.0558 5.0625 28.4625 5.0625H26.8125C26.6733 5.0625 26.5341 5.08359 26.4 5.10469V4.64062C26.4 3.01113 25.1058 1.6875 23.5125 1.6875H21.8625C20.2692 1.6875 18.975 3.01113 18.975 4.64062V11.8125H14.025V4.64062C14.025 3.01113 12.7308 1.6875 11.1375 1.6875H9.4875C7.89422 1.6875 6.6 3.01113 6.6 4.64062V5.10469C6.46594 5.08359 6.32672 5.0625 6.1875 5.0625H4.5375C2.94422 5.0625 1.65 6.38613 1.65 8.01562V11.8125H0.4125C0.185625 11.8125 0 12.0023 0 12.2344V14.7656C0 14.9977 0.185625 15.1875 0.4125 15.1875H1.65V18.9844C1.65 20.6139 2.94422 21.9375 4.5375 21.9375H6.1875C6.32672 21.9375 6.46594 21.9164 6.6 21.8953V22.3594C6.6 23.9889 7.89422 25.3125 9.4875 25.3125H11.1375C12.7308 25.3125 14.025 23.9889 14.025 22.3594V15.1875H18.975V22.3594C18.975 23.9889 20.2692 25.3125 21.8625 25.3125H23.5125C25.1058 25.3125 26.4 23.9889 26.4 22.3594V21.8953C26.5341 21.9164 26.6733 21.9375 26.8125 21.9375H28.4625C30.0558 21.9375 31.35 20.6139 31.35 18.9844V15.1875H32.5875C32.8144 15.1875 33 14.9977 33 14.7656V12.2344C33 12.0023 32.8144 11.8125 32.5875 11.8125ZM6.1875 19.4062H4.5375C4.31062 19.4062 4.125 19.2164 4.125 18.9844V8.01562C4.125 7.78359 4.31062 7.59375 4.5375 7.59375H6.1875C6.41437 7.59375 6.6 7.78359 6.6 8.01562V18.9844C6.6 19.2164 6.41437 19.4062 6.1875 19.4062ZM11.55 22.3594C11.55 22.5914 11.3644 22.7812 11.1375 22.7812H9.4875C9.26062 22.7812 9.075 22.5914 9.075 22.3594V4.64062C9.075 4.40859 9.26062 4.21875 9.4875 4.21875H11.1375C11.3644 4.21875 11.55 4.40859 11.55 4.64062V22.3594ZM23.925 22.3594C23.925 22.5914 23.7394 22.7812 23.5125 22.7812H21.8625C21.6356 22.7812 21.45 22.5914 21.45 22.3594V4.64062C21.45 4.40859 21.6356 4.21875 21.8625 4.21875H23.5125C23.7394 4.21875 23.925 4.40859 23.925 4.64062V22.3594ZM28.875 18.9844C28.875 19.2164 28.6894 19.4062 28.4625 19.4062H26.8125C26.5856 19.4062 26.4 19.2164 26.4 18.9844V8.01562C26.4 7.78359 26.5856 7.59375 26.8125 7.59375H28.4625C28.6894 7.59375 28.875 7.78359 28.875 8.01562V18.9844Z" fill="black"/>
</svg>
