<svg width="30" height="31" viewBox="0 0 30 31" fill="none" xmlns="http://www.w3.org/2000/svg">
<path d="M29.2621 10.8621C27.2057 4.5168 21.3266 0.484375 15.0061 0.484375C13.4698 0.484375 11.9093 0.720508 10.367 1.22305C2.49195 3.78418 -1.82055 12.2547 0.737921 20.1379C2.79437 26.4832 8.67341 30.5156 14.994 30.5156C16.5303 30.5156 18.0907 30.2795 19.6331 29.777C27.5081 27.2158 31.8206 18.7453 29.2621 10.8621V10.8621ZM24.7561 22.59L21.5988 22.9775L18.9557 19.2902L20.4315 14.7371L24.7319 13.399L27.0847 15.6029C27.0726 17.4617 26.6371 19.3023 25.7722 21.0037C25.4879 21.5668 25.125 22.0814 24.7561 22.59V22.59ZM24.7561 8.3373L24.127 11.5523L19.8508 12.8844L15.9678 10.0689V5.60059L18.8347 4.01426C21.2057 4.80137 23.2742 6.31504 24.7561 8.3373V8.3373ZM11.1835 4.02031L14.0323 5.60059V10.0689L10.1492 12.8844L5.87905 11.5523L5.26816 8.37363C6.73792 6.35137 8.77018 4.82559 11.1835 4.02031V4.02031ZM8.40728 22.9775L5.19558 22.584C4.32461 21.367 2.93953 18.9754 2.90929 15.6029L5.26816 13.399L9.56857 14.7432L11.0383 19.2418L8.40728 22.9775V22.9775ZM11.3226 27.0342L9.96776 24.1219L12.6049 20.3861H17.3589L20.0383 24.1219L18.6835 27.0342C18.3085 27.1432 15.1996 28.2693 11.3226 27.0342V27.0342Z" fill="black"/>
</svg>
