<svg width="23" height="28" viewBox="0 0 23 28" fill="none" xmlns="http://www.w3.org/2000/svg">
<path fill-rule="evenodd" clip-rule="evenodd" d="M9.47642 27.5458H1.9316C1.41931 27.5458 0.927997 27.3616 0.565752 27.0336C0.203507 26.7056 0 26.2608 0 25.797C0 24.8299 0.863424 24.195 1.9316 24.195H9.28519C9.40495 23.9974 9.56141 23.6616 9.62901 23.5165L19.2967 1.04922C19.5022 0.624387 19.8854 0.290661 20.3622 0.121181C20.8391 -0.048299 21.3707 -0.0397075 21.8406 0.145072C22.818 0.533314 23.2642 1.56338 22.8392 2.44829L13.1812 24.7459C12.6964 25.7812 11.8774 27.5458 9.47642 27.5458Z" fill="black"/>
<path fill-rule="evenodd" clip-rule="evenodd" d="M17.3225 25.8513H22.9976V27.6001H17.3225V25.8513Z" fill="black"/>
</svg>
