<?xml version="1.0" encoding="utf-8"?>
<!-- Generator: Adobe Illustrator 24.2.3, SVG Export Plug-In . SVG Version: 6.00 Build 0)  -->
<svg version="1.1" id="Layer_1" xmlns="http://www.w3.org/2000/svg" xmlns:xlink="http://www.w3.org/1999/xlink" x="0px" y="0px"
	 viewBox="0 0 49 49" style="enable-background:new 0 0 49 49;" xml:space="preserve">
<style type="text/css">
	.st0{fill:#FFFFFF;}
</style>
<g>
	<path class="st0" d="M32.6,42.9H16.3c-5.6,0-10.2-4.6-10.2-10.2V16.4c0-5.6,4.6-10.2,10.2-10.2h16.4c5.6,0,10.1,4.5,10.1,10.1v16.4
		C42.8,38.3,38.2,42.9,32.6,42.9z M16.3,10.2c-3.4,0-6.2,2.8-6.2,6.2v16.3c0,3.4,2.8,6.2,6.2,6.2h16.3c3.4,0,6.2-2.8,6.2-6.2V16.3
		c0-3.4-2.7-6.1-6.1-6.1H16.3z"/>
</g>
<g>
	<path class="st0" d="M24.5,32.6c-4.5,0-8.1-3.6-8.1-8.1s3.6-8.1,8.1-8.1s8.1,3.6,8.1,8.1S29,32.6,24.5,32.6z M24.5,20.4
		c-2.3,0-4.1,1.8-4.1,4.1c0,2.3,1.8,4.1,4.1,4.1c2.3,0,4.1-1.8,4.1-4.1C28.6,22.2,26.8,20.4,24.5,20.4z"/>
</g>
<g>
	<path class="st0" d="M33.7,17.3c-0.1,0-0.3,0-0.4,0c-0.1,0-0.3-0.1-0.4-0.1c-0.1-0.1-0.2-0.1-0.3-0.2c-0.1-0.1-0.2-0.1-0.3-0.3
		c-0.1-0.1-0.2-0.2-0.3-0.3c-0.1-0.1-0.1-0.2-0.2-0.3c0-0.1-0.1-0.2-0.1-0.4c0-0.1,0-0.3,0-0.4s0-0.3,0-0.4c0-0.1,0.1-0.3,0.1-0.4
		s0.1-0.2,0.2-0.3c0.1-0.1,0.1-0.2,0.3-0.3c0.1-0.1,0.2-0.2,0.3-0.2c0.1-0.1,0.2-0.1,0.3-0.2c0.1,0,0.2-0.1,0.4-0.1
		c0.7-0.1,1.3,0.1,1.8,0.5c0.4,0.4,0.6,0.9,0.6,1.4s-0.2,1-0.6,1.4C34.7,17.1,34.2,17.3,33.7,17.3z"/>
</g>
</svg>
