<svg width="26" height="26" viewBox="0 0 26 26" fill="none" xmlns="http://www.w3.org/2000/svg">
<path d="M20.1805 3.45312H19.7574L18.4408 0.466629C18.324 0.187332 18.0407 0 17.7384 0H7.60368C7.59114 0 7.57895 0.00126953 7.56656 0.00187891C7.53792 0.000101563 7.50907 -0.000507812 7.47998 0.00101562C7.1924 0.0155391 6.93758 0.190988 6.82145 0.454492L5.49545 3.46237C2.43679 3.63096 0 6.17246 0 9.27266V22.2285C0 22.6491 0.341047 22.9902 0.761719 22.9902H4.79522L4.40345 25.0992C4.36216 25.3218 4.42188 25.5511 4.56666 25.7252C4.71138 25.8994 4.92598 26 5.15237 26H21.284C21.5104 26 21.725 25.8994 21.8697 25.7252C22.0145 25.5511 22.0742 25.3218 22.0329 25.0992L21.6411 22.9902H25.2383C25.659 22.9902 26 22.6491 26 22.2285V9.27266C26 6.06374 23.3894 3.45312 20.1805 3.45312V3.45312ZM19.7988 16.2709V17.8029H15.8852V16.2709H15.8854C15.8869 16.2709 15.8884 16.2711 15.89 16.2711C15.8915 16.2711 15.8931 16.2709 15.8947 16.2709H19.7988ZM6.2012 17.8029V16.2709H6.38782C6.38894 16.2709 6.39006 16.2711 6.39118 16.2711C6.39224 16.2711 6.39336 16.2709 6.39443 16.2709H10.1148V17.8029H6.2012ZM10.7882 4.9792H14.4687L12.6285 8.22133L10.7882 4.9792ZM15.3334 3.45577H9.92352L8.82669 1.52344H16.4302L15.3334 3.45577ZM7.60414 2.45573L14.581 14.7475H12.8472L6.84648 4.17442L7.60414 2.45573ZM12.4168 16.2709H12.4193H14.3618V17.8029H11.6382V16.2709H12.4168ZM11.0855 19.3263H12.8196L11.6299 21.4225H9.89569L11.0855 19.3263ZM14.5712 19.3263H15.0168C15.0517 19.3313 15.0872 19.3347 15.1235 19.3347C15.1333 19.3347 15.1429 19.3335 15.1526 19.3332L16.3385 21.4225H14.6044L13.9929 20.3453L14.5712 19.3263ZM13.5043 9.76442L16.4465 4.58082C16.4466 4.58067 16.4467 4.58057 16.4467 4.58042L17.6527 2.45568L18.4104 4.17442L14.3711 11.2916L13.5043 9.76442ZM1.52344 21.4667V9.27266C1.52344 6.99263 3.30906 5.12261 5.55511 4.9855L11.0955 14.7475H7.02533L6.18434 10.2199C6.10741 9.80627 5.71005 9.53311 5.29633 9.6101C4.88267 9.68698 4.60972 10.0845 4.6865 10.4981L5.47584 14.7475H5.43953C5.01886 14.7475 4.67782 15.0885 4.67782 15.5092V18.5646C4.67782 18.9853 5.01886 19.3263 5.43953 19.3263H5.47584L5.07823 21.4667H1.52344ZM6.06861 24.4766L7.02533 19.3263H9.3338L7.92502 21.8083C7.79116 22.044 7.79279 22.3332 7.92919 22.5675C8.06559 22.8018 8.31634 22.946 8.58746 22.946H12.0734C12.3475 22.946 12.6006 22.7986 12.7358 22.5602L13.1171 21.8884L13.4984 22.5602C13.6337 22.7986 13.8867 22.946 14.1609 22.946H17.6468C17.9179 22.946 18.1686 22.8018 18.3051 22.5675C18.4415 22.3332 18.4431 22.044 18.3092 21.8083L16.9005 19.3263H19.4111L20.3678 24.4766H6.06861ZM24.4766 21.4667H21.3582L20.9415 19.2235C21.1689 19.0917 21.3222 18.8463 21.3222 18.5646V15.5092C21.3222 15.2275 21.1689 14.9821 20.9415 14.8503L21.75 10.4981C21.8268 10.0845 21.5538 9.68693 21.1401 9.6101C20.7267 9.53342 20.3289 9.80632 20.2521 10.2199L19.4111 14.7475H16.3328L15.2471 12.8347L19.7069 4.97656H20.1805C22.5494 4.97656 24.4766 6.90376 24.4766 9.27266V21.4667Z" fill="black"/>
</svg>
