<svg width="30" height="25" viewBox="0 0 30 25" fill="none" xmlns="http://www.w3.org/2000/svg">
<path d="M8.73246 22.0588H19.5012V20.5882C19.5012 17.3382 22.1859 14.7059 25.5005 14.7059H26.6104L23.7607 2.29412C23.6088 1.64425 23.2371 1.06388 22.7061 0.647379C22.1751 0.230874 21.516 0.00271693 20.8361 0H15.0017V2.94118H20.8361L22.9358 12.1324H22.9208C21.3138 12.6073 19.8739 13.5129 18.7636 14.7471C17.6533 15.9812 16.9166 17.495 16.6365 19.1176H8.73246C8.37205 18.1156 7.65444 17.275 6.71185 16.7507C5.76926 16.2264 4.66519 16.0538 3.60306 16.2647C1.83326 16.6029 0.408426 18.0294 0.0784639 19.7647C-0.0446287 20.4027 -0.0226705 21.0595 0.142773 21.6882C0.308216 22.3169 0.613072 22.9021 1.03561 23.4021C1.45815 23.9021 1.98796 24.3045 2.5873 24.5807C3.18663 24.8569 3.84072 25.0001 4.50295 25C6.45273 25 8.10254 23.7647 8.73246 22.0588ZM4.50295 22.0588C3.67805 22.0588 3.00313 21.3971 3.00313 20.5882C3.00313 19.7794 3.67805 19.1176 4.50295 19.1176C5.32786 19.1176 6.00278 19.7794 6.00278 20.5882C6.00278 21.3971 5.32786 22.0588 4.50295 22.0588ZM25.5005 16.1765C23.0108 16.1765 21.001 18.1471 21.001 20.5882C21.001 23.0294 23.0108 25 25.5005 25C27.9902 25 30 23.0294 30 20.5882C30 18.1471 27.9902 16.1765 25.5005 16.1765ZM25.5005 22.0588C24.6756 22.0588 24.0007 21.3971 24.0007 20.5882C24.0007 19.7794 24.6756 19.1176 25.5005 19.1176C26.3254 19.1176 27.0003 19.7794 27.0003 20.5882C27.0003 21.3971 26.3254 22.0588 25.5005 22.0588Z" fill="black"/>
</svg>
