<?xml version="1.0" encoding="utf-8"?>
<!-- Generator: Adobe Illustrator 24.2.3, SVG Export Plug-In . SVG Version: 6.00 Build 0)  -->
<svg version="1.1" id="Layer_1" xmlns="http://www.w3.org/2000/svg" xmlns:xlink="http://www.w3.org/1999/xlink" x="0px" y="0px"
	 viewBox="0 0 22 29" style="enable-background:new 0 0 22 29;" xml:space="preserve">
<g>
	<path d="M2,27.4c-0.8,0-1.4-0.6-1.4-1.4V5.8c0-4.2,3.2-5.2,4.4-5.2c0.8,0,1.4,0.6,1.4,1.4S5.8,3.4,5,3.4c-0.5,0-1.6,0.3-1.6,2.4V26
		C3.4,26.8,2.8,27.4,2,27.4z"/>
</g>
<g>
	<path d="M13,15.4H2c-0.8,0-1.4-0.6-1.4-1.4s0.6-1.4,1.4-1.4h11c0.8,0,1.4,0.6,1.4,1.4S13.8,15.4,13,15.4z"/>
</g>
<g>
	<path d="M13,19.4H2c-0.8,0-1.4-0.6-1.4-1.4s0.6-1.4,1.4-1.4h11c0.8,0,1.4,0.6,1.4,1.4S13.8,19.4,13,19.4z"/>
</g>
<g>
	<path d="M13,24.4H2c-0.8,0-1.4-0.6-1.4-1.4s0.6-1.4,1.4-1.4h11c0.8,0,1.4,0.6,1.4,1.4S13.8,24.4,13,24.4z"/>
</g>
<g>
	<path d="M17,28.4c-0.8,0-1.4-0.6-1.4-1.4V6.8c0-4.2,3.2-5.2,4.4-5.2c0.8,0,1.4,0.6,1.4,1.4S20.8,4.4,20,4.4c-0.5,0-1.6,0.3-1.6,2.4
		V27C18.4,27.8,17.8,28.4,17,28.4z"/>
</g>
<g>
	<path d="M13,9.4H2C1.2,9.4,0.6,8.8,0.6,8S1.2,6.6,2,6.6h11c0.8,0,1.4,0.6,1.4,1.4S13.8,9.4,13,9.4z"/>
</g>
</svg>
