<?xml version="1.0" encoding="utf-8"?>
<!-- Generator: Adobe Illustrator 24.2.3, SVG Export Plug-In . SVG Version: 6.00 Build 0)  -->
<svg version="1.1" id="Layer_1" xmlns="http://www.w3.org/2000/svg" xmlns:xlink="http://www.w3.org/1999/xlink" x="0px" y="0px"
	 viewBox="0 0 43 43" style="enable-background:new 0 0 43 43;" xml:space="preserve">
<g>
	<g>
		<path d="M32.5,38.9c-7.4-0.4-14.3-3.5-19.5-8.7C7.8,25,4.7,18.1,4.3,10.8c0-1.3,0.5-2.5,1.3-3.4c0.6-1,1.9-1.5,3.4-1.5h7.2
			c0.6,0,1.1,0.3,1.3,0.9l3.6,9c0.3,0.6,0,1.3-0.6,1.7l-3.4,2c1.6,2.7,3.8,5,6.7,6.6l2-3.4c0.3-0.6,1.1-0.8,1.7-0.6l9,3.6
			c0.5,0.2,0.9,0.7,0.9,1.3v7c0,1.3-0.5,2.6-1.4,3.5C35.1,38.4,33.8,38.9,32.5,38.9z M9,8.6c-0.7,0-1,0.2-1.1,0.3
			C7.8,9,7.8,9.1,7.7,9.2c-0.4,0.4-0.6,0.9-0.6,1.5c0.4,6.6,3.2,12.8,7.9,17.5c4.7,4.7,11,7.5,17.6,7.9c0.3,0,1-0.1,1.4-0.6
			c0.4-0.4,0.6-0.9,0.6-1.5v-6.1l-7-2.8l-2.1,3.5c-0.4,0.6-1.2,0.8-1.8,0.5c-4.3-2.2-7.6-5.5-9.6-9.6c-0.3-0.6-0.1-1.4,0.5-1.8
			l3.5-2.1l-2.8-7H9z M6.7,8.2L6.7,8.2L6.7,8.2z"/>
	</g>
</g>
<g>
	<g>
		<path d="M26.9,17.1c-0.3,0-0.5-0.1-0.7-0.3c-0.4-0.4-0.4-1,0-1.4l9-9c0.4-0.4,1-0.4,1.4,0s0.4,1,0,1.4l-9,9
			C27.4,17,27.2,17.1,26.9,17.1z"/>
	</g>
</g>
<g>
	<g>
		<path d="M35.9,15.8c-0.8,0-1.4-0.6-1.4-1.4V8.6h-5.8c-0.8,0-1.4-0.6-1.4-1.4s0.6-1.4,1.4-1.4h7.2c0.8,0,1.4,0.6,1.4,1.4v7.2
			C37.3,15.2,36.7,15.8,35.9,15.8z"/>
	</g>
</g>
</svg>
