<?xml version="1.0" encoding="utf-8"?>
<!-- Generator: Adobe Illustrator 24.2.3, SVG Export Plug-In . SVG Version: 6.00 Build 0)  -->
<svg version="1.1" id="Layer_1" xmlns="http://www.w3.org/2000/svg" xmlns:xlink="http://www.w3.org/1999/xlink" x="0px" y="0px"
	 viewBox="0 0 44 44" style="enable-background:new 0 0 44 44;" xml:space="preserve">
<g>
	<path d="M22,16.1c-0.4,0-0.7-0.1-1-0.4c-0.1-0.1-0.1-0.1-0.2-0.2c0-0.1-0.1-0.1-0.1-0.2c0-0.1-0.1-0.2-0.1-0.3c0-0.1,0-0.2,0-0.3
		c0-0.1,0-0.2,0-0.3c0-0.1,0-0.2,0.1-0.3c0-0.1,0.1-0.2,0.1-0.2c0-0.1,0.1-0.1,0.2-0.2c0.3-0.3,0.8-0.5,1.2-0.4
		c0.1,0,0.2,0.1,0.3,0.1c0.1,0,0.2,0.1,0.2,0.1c0.1,0,0.1,0.1,0.2,0.2c0.3,0.3,0.4,0.6,0.4,1c0,0.4-0.1,0.7-0.4,1
		c-0.1,0.1-0.1,0.1-0.2,0.2c-0.1,0-0.1,0.1-0.2,0.1c-0.1,0-0.2,0.1-0.3,0.1C22.2,16.1,22.1,16.1,22,16.1z"/>
</g>
<g>
	<path d="M33,38.1H11c-2.8,0-5.1-2.3-5.1-5.1V11c0-2.8,2.3-5.1,5.1-5.1h22c2.8,0,5.1,2.3,5.1,5.1v22C38.1,35.8,35.8,38.1,33,38.1z
		 M11,8.7c-1.2,0-2.3,1.1-2.3,2.3v22c0,1.3,1,2.3,2.3,2.3h22c1.3,0,2.3-1,2.3-2.3V11c0-1.2-1.1-2.3-2.3-2.3H11z"/>
</g>
<g>
	<path d="M23.8,30.7H22c-0.8,0-1.4-0.6-1.4-1.4v-5.9h-0.4c-0.8,0-1.4-0.6-1.4-1.4s0.6-1.4,1.4-1.4H22c0.8,0,1.4,0.6,1.4,1.4v5.9h0.4
		c0.8,0,1.4,0.6,1.4,1.4S24.6,30.7,23.8,30.7z"/>
</g>
</svg>
