<svg width="28" height="28" viewBox="0 0 28 28" fill="none" xmlns="http://www.w3.org/2000/svg">
<path d="M26.7506 10.7243C25.7921 9.76597 24.4879 9.36018 23.2357 9.50461C23.2545 9.34111 23.2652 9.17582 23.2652 9.0088C23.2652 7.86763 22.8208 6.79477 22.0138 5.98782C21.2068 5.18092 20.1339 4.73649 18.9926 4.73649C18.8256 4.73649 18.6603 4.74714 18.4968 4.76597C18.6413 3.51385 18.2354 2.20978 17.277 1.25138C16.47 0.444431 15.397 0 14.2558 0C13.1145 0 12.0415 0.444431 11.2346 1.25132L11.1322 1.35372L3.42461 16.3685L1.69994 18.093C0.603674 19.1892 0 20.6465 0 22.1967C0 23.7468 0.603673 25.2042 1.69987 26.3002C2.79608 27.3963 4.25353 28 5.8038 28C7.35406 28 8.81152 27.3963 9.90766 26.3002L11.6323 24.5757L26.6482 16.8686L26.7506 16.7662C28.4165 15.1004 28.4165 12.39 26.7506 10.7243ZM20.7083 7.29323C21.1665 7.75145 21.4189 8.36074 21.4189 9.00874C21.4189 9.6416 21.1782 10.2375 20.7401 10.6919L20.2491 11.0878L16.9135 7.75249L17.3095 7.26148C17.7638 6.82338 18.3597 6.58271 18.9927 6.58271C19.6407 6.58265 20.25 6.83502 20.7083 7.29323ZM11.3703 11.6852L9.47132 14.0401L7.63685 12.2057L9.07978 9.39477L11.3703 11.6852ZM9.96538 7.66954L11.4083 4.85858L14.4349 7.88492L12.5358 10.2398L9.96538 7.66954ZM7.71975 19.1532L9.61877 16.7983L11.2025 18.382L8.84746 20.2808L7.71975 19.1532ZM10.7843 15.353L12.6834 12.9981L15.0031 15.3177L12.648 17.2166L10.7843 15.353ZM8.30576 15.4854L6.40673 17.8403L5.30825 16.7418L6.75119 13.931L8.30576 15.4854ZM10.1605 21.5937L12.5155 19.6949L14.0701 21.2494L11.259 22.6922L10.1605 21.5937ZM13.9609 18.5294L16.316 16.6305L18.6066 18.9209L15.7954 20.3638L13.9609 18.5294ZM17.7615 15.465L20.1166 13.5662L23.1431 16.5925L20.332 18.0353L17.7615 15.465ZM16.4485 14.1521L13.8489 11.5527L15.7479 9.19779L18.8035 12.2532L16.4485 14.1521ZM14.2558 1.84615C14.9038 1.84615 15.5132 2.09852 15.9715 2.55674C16.9174 3.50258 16.9174 5.04154 15.9717 5.98757C15.9714 5.98788 15.9365 6.02277 15.9365 6.02277L15.6004 6.43957L12.294 3.13335L12.6371 2.46486C13.0827 2.06486 13.6524 1.84615 14.2558 1.84615ZM25.5369 15.3639L24.8685 15.707L21.562 12.4007L21.9404 12.0956L21.9789 12.0647L22.0137 12.0298C22.9597 11.0839 24.4992 11.0839 25.4451 12.0298C26.3594 12.9439 26.3899 14.4124 25.5369 15.3639Z" fill="black"/>
</svg>
