<?xml version="1.0" encoding="utf-8"?>
<!-- Generator: Adobe Illustrator 24.2.3, SVG Export Plug-In . SVG Version: 6.00 Build 0)  -->
<svg version="1.1" id="Layer_1" xmlns="http://www.w3.org/2000/svg" xmlns:xlink="http://www.w3.org/1999/xlink" x="0px" y="0px"
	 viewBox="0 0 39 38" style="enable-background:new 0 0 39 38;" xml:space="preserve">
<g>
	<path d="M10.5,28.4c-2.6,0-4.9-2.2-4.9-4.9s2.2-4.9,4.9-4.9s4.9,2.2,4.9,4.9S13.1,28.4,10.5,28.4z M10.5,21.4c-1.1,0-2.1,1-2.1,2.1
		s1,2.1,2.1,2.1s2.1-1,2.1-2.1S11.6,21.4,10.5,21.4z"/>
</g>
<g>
	<path d="M27.5,28.4c-2.6,0-4.9-2.2-4.9-4.9s2.2-4.9,4.9-4.9s4.9,2.2,4.9,4.9S30.1,28.4,27.5,28.4z M27.5,21.4c-1.1,0-2.1,1-2.1,2.1
		s1,2.1,2.1,2.1s2.1-1,2.1-2.1S28.6,21.4,27.5,21.4z"/>
</g>
<g>
	<path d="M30.8,17.4H8.2c-1,0-2-0.1-2.7-0.4c-0.5-0.2-1.8-0.6-1.8-2c0-0.8,0.6-1.4,1.4-1.4c0.5,0,1,0.3,1.2,0.7c0,0,0.1,0,0.1,0
		c0.4,0.1,1.2,0.2,1.9,0.2h22.6c0.8,0,1.4-0.1,1.9-0.2c0,0,0.1,0,0.1,0c0.2-0.4,0.7-0.7,1.2-0.7c0.8,0,1.4,0.6,1.4,1.4
		c0,1.4-1.4,1.9-1.8,2C32.8,17.3,31.9,17.4,30.8,17.4z M6.4,15L6.4,15L6.4,15z M33,14.3L33,14.3L33,14.3z"/>
</g>
</svg>
