<?xml version="1.0" encoding="utf-8"?>
<!-- Generator: Adobe Illustrator 24.2.3, SVG Export Plug-In . SVG Version: 6.00 Build 0)  -->
<svg version="1.1" id="Layer_1" xmlns="http://www.w3.org/2000/svg" xmlns:xlink="http://www.w3.org/1999/xlink" x="0px" y="0px"
	 viewBox="0 0 43 45" style="enable-background:new 0 0 43 45;" xml:space="preserve">
<style type="text/css">
	.st0{fill:#FFFFFF;}
</style>
<g>
	<path class="st0" d="M13.3,44.2c-0.3,0-0.7-0.1-1.1-0.2c-1.8-0.5-2.5-2.3-2.4-3.9v-2.5c-9.3-3.6-9.1-14.2-9-18.8
		C0.9,12.7,2.3,8.4,5.3,5.5l0.1-0.1c5.5-5,15.9-4.6,16.9-4.5c9.5,0,13.9,3.3,15.1,4.3c2.9,2.5,6.1,8.1,4.6,20.6
		c-0.8,6.7-4.5,10.9-10.8,12.5c-0.1,0-0.3,0.1-0.3,0.1c-0.9,0.3-5.6,1.4-11.5,1.1c-0.6,0.7-1.2,1.4-1.7,2c-0.2,0.2-0.5,0.5-0.7,0.7
		C16.1,43,14.9,44.2,13.3,44.2z M8.1,8.4c-2.1,2.2-3.2,5.5-3.3,10.6c-0.1,6.4,0.3,13.3,7.5,15.3l1.5,0.4v4.8c0,0,0.1-0.1,0.1-0.1
		c0.2-0.3,0.5-0.5,0.8-0.8c0.4-0.4,1-1.1,1.6-1.7c0.2-0.3,0.4-0.5,0.6-0.8l0.7-0.8l1,0.1c6.3,0.5,11-0.8,11-0.8
		c0.2-0.1,0.4-0.1,0.6-0.2c2-0.5,6.8-1.7,7.7-9.1c1-8.3-0.2-14.5-3.2-17.1l0,0c-0.6-0.5-4.1-3.3-12.5-3.3l-0.1,0
		C22,4.9,12.5,4.4,8.1,8.4z"/>
</g>
<g>
	<path class="st0" d="M25.9,19.7c-0.5,0-1-0.4-1-0.9c-0.1-1.5-0.6-2.1-2.1-2.2c-0.6,0-1-0.5-0.9-1.1c0-0.6,0.5-1,1.1-0.9
		c2.4,0.1,3.8,1.6,3.9,4C26.9,19.2,26.5,19.7,25.9,19.7C25.9,19.7,25.9,19.7,25.9,19.7z"/>
</g>
<g>
	<path class="st0" d="M28.4,20.6c-0.6,0-1-0.4-1-1c0-1.6-0.4-2.9-1.4-4c-0.9-1-2.3-1.6-4-1.6c-0.6,0-1-0.5-0.9-1c0-0.6,0.5-1,1-0.9
		c2.2,0.1,4.1,0.9,5.4,2.3c1.3,1.5,1.9,3.2,1.9,5.3C29.4,20.2,29,20.6,28.4,20.6z"/>
</g>
<g>
	<path class="st0" d="M23,25.4c0,0,0.7,0.1,1.1-0.4l0.7-0.9c0.4-0.5,1.2-0.8,2.1-0.3c0.6,0.4,1.2,0.7,1.8,1.2
		c0.6,0.4,1.7,1.4,1.7,1.4c0.5,0.5,0.7,1.1,0.3,1.8l0,0c-0.4,0.7-0.9,1.3-1.5,1.9l0,0c-0.5,0.4-1,0.7-1.6,0.8c-0.1,0-0.2,0-0.2,0
		c-0.2,0-0.4,0-0.7-0.1l0,0c-0.8-0.2-2.1-0.8-4.3-2c-1.3-0.7-2.5-1.5-3.6-2.4c-0.6-0.4-1.1-0.9-1.6-1.4l-0.1-0.1L17,24.8v-0.1
		c0,0,0,0-0.1-0.1c-0.5-0.5-1-1-1.4-1.6c-0.9-1.1-1.7-2.3-2.4-3.6c-1.2-2.2-1.8-3.5-2-4.3l0,0C11,15,11,14.8,11,14.5
		c0-0.1,0-0.2,0-0.2c0.1-0.5,0.3-1,0.8-1.6l0,0c0.5-0.6,1.2-1.1,1.9-1.5l0,0c0.7-0.4,1.4-0.2,1.8,0.3c0,0,1,1.1,1.4,1.7
		c0.4,0.6,0.8,1.2,1.2,1.8c0.5,0.8,0.2,1.7-0.3,2l-0.9,0.7c-0.5,0.4-0.4,1.1-0.4,1.1S17.8,24.1,23,25.4L23,25.4z"/>
</g>
<g>
	<path class="st0" d="M31.1,21.6c-0.6,0-1-0.4-1-1c0-2.8-0.8-5-2.5-6.8c-1.7-1.6-3.7-2.4-6.3-2.5c-0.6,0-1-0.5-1-1c0-0.6,0.5-1,1-1
		c3.1,0.1,5.6,1.1,7.7,3.1c2.1,2.2,3.1,4.9,3.1,8.2C32.1,21.2,31.7,21.6,31.1,21.6z"/>
</g>
</svg>
