<svg width="27" height="27" viewBox="0 0 27 27" fill="none" xmlns="http://www.w3.org/2000/svg">
<path d="M13.5 0C15.165 0 16.5 1.50188 16.5 3.375C16.5 5.24813 15.165 6.75 13.5 6.75C11.835 6.75 10.5 5.24813 10.5 3.375C10.5 1.50188 11.85 0 13.5 0ZM27 20.25V16.875C23.64 16.875 20.76 15.255 18.6 12.3525L16.59 9.6525C16.3109 9.27192 15.9604 8.9656 15.5636 8.75552C15.1668 8.54545 14.7335 8.43684 14.295 8.4375H12.75C11.835 8.4375 10.995 8.87625 10.425 9.6525L8.415 12.3525C6.24 15.255 3.36 16.875 0 16.875V20.25C4.155 20.25 7.785 18.2756 10.5 14.7656V18.5625L4.68 21.1781C3.675 21.6337 3 22.7812 3 23.9794C3 25.65 4.2 27 5.685 27H9V26.1562C9 25.0374 9.39509 23.9643 10.0983 23.1731C10.8016 22.382 11.7554 21.9375 12.75 21.9375H17.25C17.67 21.9375 18 22.3087 18 22.7812C18 23.2537 17.67 23.625 17.25 23.625H12.75C11.505 23.625 10.5 24.7556 10.5 26.1562V27H21.315C22.8 27 24 25.65 24 23.9794C24 22.7812 23.325 21.6337 22.32 21.1781L16.5 18.5625V14.7656C19.215 18.2756 22.845 20.25 27 20.25Z" fill="black"/>
</svg>
