<?xml version="1.0" encoding="utf-8"?>
<!-- Generator: Adobe Illustrator 24.2.3, SVG Export Plug-In . SVG Version: 6.00 Build 0)  -->
<svg version="1.1" id="Layer_1" xmlns="http://www.w3.org/2000/svg" xmlns:xlink="http://www.w3.org/1999/xlink" x="0px" y="0px"
	 viewBox="0 0 37 37" style="enable-background:new 0 0 37 37;" xml:space="preserve">
<g>
	<g>
		<g>
			<path d="M18.5,33.4c-8.2,0-14.9-6.7-14.9-14.9S10.3,3.6,18.5,3.6s14.9,6.7,14.9,14.9S26.7,33.4,18.5,33.4z M18.5,6.4
				c-6.7,0-12.1,5.4-12.1,12.1s5.4,12.1,12.1,12.1s12.1-5.4,12.1-12.1S25.2,6.4,18.5,6.4z"/>
		</g>
	</g>
</g>
<g>
	<g>
		<g>
			<path d="M28,29.4c-0.4,0-0.7-0.1-1-0.4L8,10C7.5,9.4,7.5,8.6,8,8S9.4,7.5,10,8l19,19c0.5,0.5,0.5,1.4,0,1.9
				C28.7,29.2,28.4,29.4,28,29.4z"/>
		</g>
	</g>
</g>
<g>
	<g>
		<g>
			<path d="M9,29.4c-0.4,0-0.7-0.1-1-0.4c-0.5-0.5-0.5-1.4,0-1.9L27,8c0.5-0.5,1.4-0.5,1.9,0c0.5,0.5,0.5,1.4,0,1.9L10,29
				C9.7,29.2,9.4,29.4,9,29.4z"/>
		</g>
	</g>
</g>
<g>
	<g>
		<g>
			<path d="M32,20.4c-3.8,0-7.5-1.7-10.2-4.5C19.1,13,17.6,9,17.6,5c0-0.8,0.6-1.4,1.4-1.4c0.8,0,1.4,0.6,1.4,1.4
				c0,3.3,1.3,6.6,3.4,9c2.1,2.3,5.2,3.7,8.2,3.7c0.8,0,1.4,0.6,1.4,1.4C33.4,19.8,32.8,20.4,32,20.4z"/>
		</g>
	</g>
</g>
<g>
	<g>
		<g>
			<path d="M19,33.4c-0.8,0-1.4-0.6-1.4-1.4c0-3-1.4-6.1-3.7-8.2c-2.4-2.2-5.6-3.4-9-3.4c-0.8,0-1.4-0.6-1.4-1.4
				c0-0.8,0.6-1.4,1.4-1.4c4,0,8,1.5,10.8,4.2c2.9,2.7,4.5,6.4,4.5,10.2C20.4,32.8,19.8,33.4,19,33.4z"/>
		</g>
	</g>
</g>
</svg>
