<?xml version="1.0" encoding="utf-8"?>
<!-- Generator: Adobe Illustrator 24.2.3, SVG Export Plug-In . SVG Version: 6.00 Build 0)  -->
<svg version="1.1" id="Layer_1" xmlns="http://www.w3.org/2000/svg" xmlns:xlink="http://www.w3.org/1999/xlink" x="0px" y="0px"
	 viewBox="0 0 31 34" style="enable-background:new 0 0 31 34;" xml:space="preserve">
<g>
	<path d="M20,8.4h-6c-0.8,0-1.4-0.6-1.4-1.4V4.3c0-0.7,0.4-1.5,0.8-1.9c0.5-0.5,1.2-0.8,2.1-0.8h3c1,0,1.7,0.4,2.1,0.8
		c0.5,0.5,0.8,1.2,0.8,1.9V7C21.4,7.8,20.8,8.4,20,8.4z M15.4,5.6h3.3V4.4c0,0-0.1,0-0.1,0h-3c-0.1,0-0.1,0-0.1,0V5.6z M15.4,4.4
		C15.4,4.4,15.3,4.4,15.4,4.4C15.4,4.4,15.4,4.4,15.4,4.4z"/>
</g>
<g>
	<path d="M21.2,31.4h-8.4c-1.1,0-2.2-0.5-3-1.2c-0.7-0.7-1.2-1.9-1.2-3v-8.9c0-2.7,0.8-5.3,2.3-7.5c0-0.1,0.1-0.1,0.2-0.2l0,0
		C12.2,9,12.8,7,12.8,5c0-0.8,0.6-1.4,1.4-1.4s1.4,0.6,1.4,1.4c0,2.6-0.8,5.2-2.2,7.3c0,0.1-0.1,0.1-0.2,0.2l0,0
		c-1.2,1.7-1.8,3.7-1.8,5.8v8.9c0,0.4,0.2,0.8,0.4,1c0.2,0.2,0.7,0.4,1,0.4h8.4c0.4,0,0.8-0.1,1-0.4s0.4-0.6,0.4-1v-8.9
		c0-2.1-0.6-4.1-1.8-5.8l0,0c-0.1-0.1-0.1-0.1-0.2-0.2c-1.4-2.1-2.2-4.7-2.2-7.3c0-0.8,0.6-1.4,1.4-1.4s1.4,0.6,1.4,1.4
		c0,2,0.6,4,1.7,5.6l0,0c0.1,0.1,0.1,0.1,0.2,0.2c1.5,2.2,2.3,4.8,2.3,7.5v8.9c0,1.1-0.4,2.2-1.2,3S22.3,31.4,21.2,31.4z"/>
</g>
<g>
	<path d="M19.8,22.4c-0.9,0-1.6-0.2-2.2-0.5c-0.7-0.3-1.3-0.9-1.8-1.6c-0.1-0.2-0.3-0.4-0.7-0.6c-0.2-0.1-0.5-0.2-0.9-0.2
		c-0.3,0-0.7,0.1-1.1,0.3c-0.2,0.1-0.4,0.3-0.5,0.5c0,0.1-0.1,0.1-0.1,0.2c-0.4,0.5-1,1.1-1.9,1.6c-0.7,0.3-1.5,0.1-1.8-0.6
		c-0.3-0.7-0.1-1.5,0.6-1.8c0.3-0.2,0.6-0.4,0.9-0.8c0.5-0.7,1.1-1.3,1.8-1.6c0.6-0.2,1.2-0.5,2.1-0.5c0.6,0,1.5,0.1,2.3,0.6
		c0.6,0.4,1.2,0.8,1.7,1.6c0.2,0.3,0.3,0.5,0.5,0.5c0.1,0,0.1,0.1,0.2,0.1c0.2,0.1,0.4,0.2,0.9,0.2c0.4,0,0.7-0.1,0.9-0.2
		c0.4-0.2,0.6-0.4,0.7-0.6c0-0.1,0.1-0.1,0.1-0.2c0.4-0.5,1-1.1,1.9-1.6c0.7-0.3,1.5-0.1,1.8,0.6c0.3,0.7,0.1,1.5-0.6,1.8
		c-0.3,0.2-0.6,0.4-0.9,0.8c-0.5,0.7-1,1.1-1.6,1.5C21.3,22.3,20.4,22.4,19.8,22.4z"/>
</g>
</svg>
