<?xml version="1.0" encoding="utf-8"?>
<!-- Generator: Adobe Illustrator 24.2.3, SVG Export Plug-In . SVG Version: 6.00 Build 0)  -->
<svg version="1.1" id="Layer_1" xmlns="http://www.w3.org/2000/svg" xmlns:xlink="http://www.w3.org/1999/xlink" x="0px" y="0px"
	 viewBox="0 0 46 47" style="enable-background:new 0 0 46 47;" xml:space="preserve">
<g>
	<g>
		<path d="M33,12.4c-0.4,0-0.7-0.1-1-0.4c-0.3-0.3-0.4-0.6-0.4-1c0-0.4,0.1-0.7,0.4-1c0.1-0.1,0.1-0.1,0.2-0.2
			c0.1,0,0.1-0.1,0.2-0.1c0.1,0,0.2-0.1,0.3-0.1c0.4-0.1,0.9,0.1,1.2,0.4c0.3,0.3,0.4,0.6,0.4,1c0,0.4-0.2,0.7-0.4,1
			C33.7,12.2,33.4,12.4,33,12.4z"/>
	</g>
	<g>
		<path d="M33,25.2c-0.5,0-0.9-0.2-1.1-0.6l-6.4-9.2c0,0-0.1-0.1-0.1-0.1c-0.7-1.3-1.1-2.8-1.1-4.4c0-1.4,0.4-2.8,1.2-4.3
			c0.7-1.3,1.8-2.4,3.2-3.1c1.4-0.8,2.9-1.2,4.3-1.2c1.6,0,3.1,0.4,4.3,1.2c1.4,0.9,2.4,1.8,3.1,3c0.8,1.5,1.2,2.9,1.2,4.3
			c0,1.5-0.3,2.9-1,4.3c0,0.1-0.1,0.1-0.1,0.2l-6.4,9.2C33.9,25,33.5,25.2,33,25.2z M27.8,13.9l5.2,7.5l5.2-7.5c0.5-1,0.7-2,0.7-3
			c0-1-0.3-1.9-0.8-2.9c-0.5-0.8-1.2-1.4-2.2-2.1C35,5.3,34.1,5.1,33,5.1c-0.9,0-2,0.3-2.9,0.8c-0.9,0.5-1.7,1.2-2.2,2.1
			c-0.6,1-0.8,2-0.8,2.9C27.1,12,27.3,13,27.8,13.9z"/>
	</g>
	<g>
		<path d="M5.5,38c-0.3,0-0.5-0.1-0.7-0.2c-0.4-0.3-0.7-0.7-0.7-1.2V12.8c0-0.5,0.3-1,0.8-1.2l11-5.5c0.4-0.2,0.8-0.2,1.2,0l2.8,1.4
			c0.7,0.3,1,1.2,0.6,1.8c-0.3,0.7-1.2,1-1.8,0.6l-2.2-1.1l-9.6,4.8v20.7l9-4.5c0.4-0.2,0.8-0.2,1.2,0l10.4,5.2l9.6-4.8v-2.8
			c0-0.8,0.6-1.4,1.4-1.4s1.4,0.6,1.4,1.4v3.7c0,0.5-0.3,1-0.8,1.2l-11,5.5c-0.4,0.2-0.8,0.2-1.2,0l-10.4-5.2L6.1,37.8
			C5.9,37.9,5.7,38,5.5,38z"/>
	</g>
	<g>
		<path d="M16.5,32.5c-0.8,0-1.4-0.6-1.4-1.4V7.3c0-0.8,0.6-1.4,1.4-1.4s1.4,0.6,1.4,1.4v23.8C17.9,31.9,17.3,32.5,16.5,32.5z"/>
	</g>
	<g>
		<path d="M27.5,38.1c-0.8,0-1.4-0.6-1.4-1.4v-9.2c0-0.8,0.6-1.4,1.4-1.4s1.4,0.6,1.4,1.4v9.2C28.9,37.5,28.3,38.1,27.5,38.1z"/>
	</g>
</g>
</svg>
