<svg width="29" height="29" viewBox="0 0 29 29" fill="none" xmlns="http://www.w3.org/2000/svg">
<path d="M13.2753 0C16.7962 0 20.1728 1.39865 22.6624 3.88825C25.152 6.37786 26.5507 9.75449 26.5507 13.2753C26.5539 15.3391 26.0739 17.3749 25.1491 19.2199L28.5909 22.6631C28.8528 22.9251 29 23.2805 29 23.651C29 24.0216 28.8528 24.377 28.5909 24.639L24.639 28.5909C24.377 28.8528 24.0216 29 23.651 29C23.2805 29 22.9251 28.8528 22.6631 28.5909L19.2199 25.1491C17.3749 26.0739 15.3391 26.5539 13.2753 26.5507C9.75449 26.5507 6.37786 25.152 3.88825 22.6624C1.39865 20.1728 0 16.7962 0 13.2753C0 9.75449 1.39865 6.37786 3.88825 3.88825C6.37786 1.39865 9.75449 5.24645e-08 13.2753 0ZM20.6858 18.7084L18.7098 20.6844L23.651 25.6242L25.627 23.6482L20.6858 18.7084ZM23.2905 10.1773L10.1773 23.2905C11.1809 23.5998 12.2252 23.7566 13.2753 23.7558C14.5855 23.7576 15.8844 23.513 17.1042 23.0348L15.7459 21.6737C15.484 21.4117 15.3368 21.0563 15.3368 20.6858C15.3368 20.3152 15.484 19.9598 15.7459 19.6978L19.6978 15.7459C19.9598 15.484 20.3152 15.3368 20.6858 15.3368C21.0563 15.3368 21.4117 15.484 21.6737 15.7459L23.0348 17.1042C23.513 15.8844 23.7576 14.5855 23.7558 13.2753C23.7558 12.1965 23.5924 11.1569 23.2905 10.1773Z" fill="black"/>
</svg>
