<?xml version="1.0" encoding="utf-8"?>
<!-- Generator: Adobe Illustrator 24.2.3, SVG Export Plug-In . SVG Version: 6.00 Build 0)  -->
<svg version="1.1" id="Layer_1" xmlns="http://www.w3.org/2000/svg" xmlns:xlink="http://www.w3.org/1999/xlink" x="0px" y="0px"
	 viewBox="0 0 29 29" style="enable-background:new 0 0 29 29;" xml:space="preserve">
<g>
	<path d="M27,8.4H17c-0.8,0-1.4-0.6-1.4-1.4V2c0-0.8,0.6-1.4,1.4-1.4h10c0.8,0,1.4,0.6,1.4,1.4v5C28.4,7.8,27.8,8.4,27,8.4z
		 M18.4,5.6h7.3V3.4h-7.3V5.6z"/>
</g>
<g>
	<path d="M25.7,23.5H4.5c-2.3-0.2-3.9-1.9-3.9-4v-3.8c0-3.6,2.8-6.4,6.4-6.4h8.6V7c0-0.8,0.6-1.4,1.4-1.4h10c0.8,0,1.4,0.6,1.4,1.4
		v13.8C28.4,22.3,27.2,23.5,25.7,23.5z M7,12.1c-2,0-3.6,1.6-3.6,3.6v3.8c0,0.7,0.5,1.2,1.2,1.2l21,0V8.4h-7.3v2.3
		c0,0.8-0.6,1.4-1.4,1.4H7z"/>
</g>
<g>
	<path d="M8.3,15.9c-0.8,0-1.4-0.6-1.4-1.4v-3.8c0-0.8,0.6-1.4,1.4-1.4s1.4,0.6,1.4,1.4v3.8C9.7,15.3,9.1,15.9,8.3,15.9z"/>
</g>
<g>
	<path d="M12.6,15.9c-0.8,0-1.4-0.6-1.4-1.4v-3.8c0-0.8,0.6-1.4,1.4-1.4S14,9.9,14,10.7v3.8C14,15.3,13.4,15.9,12.6,15.9z"/>
</g>
<g>
	<path d="M13.9,12.2H7c-0.8,0-1.4-0.6-1.4-1.4S6.2,9.4,7,9.4h6.9c0.8,0,1.4,0.6,1.4,1.4S14.7,12.2,13.9,12.2z"/>
</g>
<g>
	<path d="M5.1,28.4c-0.9,0-1.9-0.4-2.7-1c-0.1-0.1-0.2-0.1-0.2-0.2c-0.7-0.8-1-1.7-1-2.7c0-1.1,0.4-2,1.1-2.8c0,0,0.1-0.1,0.1-0.1
		c1.7-1.3,3.7-1.3,5.3,0c0.1,0.1,0.2,0.1,0.2,0.2c0.7,0.8,1,1.7,1,2.7c0,1.1-0.4,2-1.1,2.8c0,0-0.1,0.1-0.1,0.1
		C6.9,28,6,28.4,5.1,28.4z M4.3,25.3c0.3,0.2,0.6,0.3,0.8,0.3c0.3,0,0.6-0.1,0.9-0.3c0.1-0.1,0.2-0.4,0.2-0.8c0-0.3-0.1-0.5-0.3-0.8
		c-0.6-0.4-1.1-0.4-1.7,0C4.1,23.9,4,24.1,4,24.5C4,24.8,4.1,25,4.3,25.3z"/>
</g>
<g>
	<path d="M11.6,28.4c-0.9,0-1.8-0.3-2.7-1c-0.1-0.1-0.2-0.1-0.2-0.2c-0.7-0.8-1-1.7-1-2.7c0-1.1,0.4-2,1.1-2.8c0,0,0.1-0.1,0.1-0.1
		c0.8-0.7,1.7-1,2.7-1c1.1,0,2,0.4,2.8,1.1c0,0,0.1,0.1,0.1,0.1c0.7,0.8,1,1.7,1,2.7c0,1.1-0.4,2-1.1,2.8c0,0-0.1,0.1-0.1,0.1
		C13.4,28,12.5,28.4,11.6,28.4z M10.8,25.3c0.6,0.4,1.1,0.4,1.7,0c0.1-0.1,0.2-0.4,0.2-0.8c0-0.3-0.1-0.6-0.3-0.9
		c-0.1-0.1-0.4-0.2-0.8-0.2c-0.3,0-0.6,0.1-0.9,0.3c-0.1,0.1-0.2,0.4-0.2,0.8C10.5,24.8,10.6,25,10.8,25.3z"/>
</g>
<g>
	<path d="M18,28.4c-0.9,0-1.9-0.4-2.7-1c-0.1-0.1-0.2-0.1-0.2-0.2c-0.7-0.8-1-1.7-1-2.7c0-1.1,0.4-2,1.1-2.8c0,0,0.1-0.1,0.1-0.1
		c1.7-1.3,3.7-1.3,5.3,0c0.1,0.1,0.2,0.1,0.2,0.2c0.7,0.8,1,1.7,1,2.7c0,1.1-0.4,2-1.1,2.8c0,0-0.1,0.1-0.1,0.1
		C19.8,28,18.9,28.4,18,28.4z M17.2,25.3c0.3,0.2,0.6,0.3,0.8,0.3c0.3,0,0.6-0.1,0.9-0.3c0.1-0.1,0.2-0.4,0.2-0.8
		c0-0.3-0.1-0.5-0.3-0.8c-0.6-0.4-1.1-0.4-1.7,0c-0.1,0.1-0.2,0.4-0.2,0.8C16.9,24.8,17,25,17.2,25.3z"/>
</g>
<g>
	<path d="M24.5,28.4c-0.9,0-1.8-0.3-2.7-1c-0.1-0.1-0.2-0.1-0.2-0.2c-0.7-0.8-1-1.7-1-2.7c0-1.1,0.4-2,1.1-2.8c0,0,0.1-0.1,0.1-0.1
		c0.8-0.7,1.7-1,2.7-1c1.1,0,2,0.4,2.8,1.1c0,0,0.1,0.1,0.1,0.1c0.7,0.8,1,1.7,1,2.7c0,1.1-0.4,2-1.1,2.8c0,0-0.1,0.1-0.1,0.1
		C26.3,28,25.4,28.4,24.5,28.4z M23.7,25.3c0.6,0.4,1.1,0.4,1.7,0c0.1-0.1,0.2-0.4,0.2-0.8c0-0.3-0.1-0.6-0.3-0.9
		c-0.1-0.1-0.4-0.2-0.8-0.2c-0.3,0-0.6,0.1-0.9,0.3c-0.1,0.1-0.2,0.4-0.2,0.8C23.4,24.8,23.5,25,23.7,25.3z"/>
</g>
</svg>
