<?xml version="1.0" encoding="utf-8"?>
<!-- Generator: Adobe Illustrator 24.2.3, SVG Export Plug-In . SVG Version: 6.00 Build 0)  -->
<svg version="1.1" id="Layer_1" xmlns="http://www.w3.org/2000/svg" xmlns:xlink="http://www.w3.org/1999/xlink" x="0px" y="0px"
	 viewBox="0 0 30 30" style="enable-background:new 0 0 30 30;" xml:space="preserve">
<g>
	<path d="M12.5,22.7C7,22.7,2.4,18.1,2.3,12.5c0-5.6,4.6-10.2,10.2-10.2s10.2,4.6,10.2,10.2S18.1,22.7,12.5,22.7z M12.5,5.1
		c-4.1,0-7.4,3.3-7.4,7.4c0.1,4.1,3.4,7.4,7.4,7.4c4.1,0,7.4-3.3,7.4-7.4C19.9,8.4,16.6,5.1,12.5,5.1z"/>
</g>
<g>
	<path d="M26.3,27.7c-0.4,0-0.7-0.1-1-0.4l-7.5-7.5c-0.5-0.5-0.5-1.4,0-1.9c0.5-0.5,1.4-0.5,1.9,0l7.5,7.5c0.5,0.5,0.5,1.4,0,1.9
		C27,27.5,26.7,27.7,26.3,27.7z"/>
</g>
</svg>
