<?xml version="1.0" encoding="utf-8"?>
<!-- Generator: Adobe Illustrator 24.2.3, SVG Export Plug-In . SVG Version: 6.00 Build 0)  -->
<svg version="1.1" id="Layer_1" xmlns="http://www.w3.org/2000/svg" xmlns:xlink="http://www.w3.org/1999/xlink" x="0px" y="0px"
	 viewBox="0 0 36 36" style="enable-background:new 0 0 36 36;" xml:space="preserve">
<g>
	<path d="M31.5,32.9h-27c-0.8,0-1.4-0.6-1.4-1.4s0.6-1.4,1.4-1.4h27c0.8,0,1.4,0.6,1.4,1.4S32.3,32.9,31.5,32.9z"/>
</g>
<g>
	<path d="M27,17.9c-1.5,0-3.1-0.6-4.2-1.7c-0.1-0.1-0.2-0.2-0.3-0.4c-0.1,0.1-0.2,0.3-0.3,0.4c-1.3,1.1-2.7,1.7-4.2,1.7
		c-1.7,0-3.2-0.6-4.2-1.8c-0.1-0.1-0.2-0.2-0.2-0.3c-0.1,0.1-0.3,0.3-0.4,0.4c-1.2,1.1-2.6,1.6-4.1,1.6c-1.7,0-3.2-0.6-4.2-1.8
		c-1.1-1.2-1.6-2.6-1.6-4.1v-1.5c0,0,0,0,0,0c0,0,0,0,0,0v0c0,0,0,0,0,0v0c0,0,0,0,0,0l0,0c0-0.2,0.1-0.4,0.2-0.6l3-6
		C6.5,3.4,7,3.1,7.5,3.1h21c0.5,0,1,0.3,1.2,0.8l3,6c0.1,0.1,0.1,0.2,0.1,0.3c0,0.1,0,0.2,0,0.3V12c0,1.5-0.6,3.1-1.7,4.2
		C29.9,17.3,28.5,17.9,27,17.9z M23.9,12c0,1,0.5,1.8,1,2.3c0.5,0.5,1.4,0.8,2.2,0.8c1,0,1.8-0.5,2.3-1c0.5-0.5,0.8-1.4,0.8-2.2
		v-0.1h-6.3V12z M15.1,13.1c0.2,0.5,0.5,0.9,0.7,1.2c0.5,0.5,1.3,0.8,2.2,0.8c1,0,1.8-0.5,2.3-1c0.5-0.5,0.8-1.3,0.8-2L15.1,13.1z
		 M5.9,11.9V12c0,1,0.5,1.8,1,2.3c0.5,0.5,1.3,0.8,2.2,0.8c1,0,1.8-0.5,2.3-1c0.5-0.5,0.8-1.3,0.8-2.2v-0.1H5.9z M22.5,9.1h6.8
		l-1.6-3.3H8.3L6.7,9.1H22.5C22.5,9.1,22.5,9.1,22.5,9.1z"/>
</g>
<g>
	<path d="M7.5,32.9c-0.8,0-1.4-0.6-1.4-1.4V16.3c0-0.8,0.6-1.4,1.4-1.4s1.4,0.6,1.4,1.4v15.2C8.9,32.3,8.3,32.9,7.5,32.9z"/>
</g>
<g>
	<path d="M28.5,32.9c-0.8,0-1.4-0.6-1.4-1.4V16.3c0-0.8,0.6-1.4,1.4-1.4s1.4,0.6,1.4,1.4v15.2C29.9,32.3,29.3,32.9,28.5,32.9z"/>
</g>
<g>
	<path d="M22.5,32.9c-0.8,0-1.4-0.6-1.4-1.4v-6c0-0.4-0.2-0.8-0.5-1.1c0,0-0.1-0.1-0.1-0.1c-0.2-0.3-0.6-0.4-1-0.4h-3
		c-0.4,0-0.8,0.2-1.1,0.5c0,0-0.1,0.1-0.1,0.1c-0.3,0.2-0.4,0.6-0.4,1v6c0,0.8-0.6,1.4-1.4,1.4s-1.4-0.6-1.4-1.4v-6
		c0-1.2,0.5-2.4,1.3-3.1c0.8-0.8,1.9-1.3,3-1.3h3c1.2,0,2.4,0.5,3.1,1.3c0.8,0.8,1.3,1.9,1.3,3v6C23.9,32.3,23.3,32.9,22.5,32.9z"/>
</g>
</svg>
