<?xml version="1.0" encoding="utf-8"?>
<!-- Generator: Adobe Illustrator 24.2.3, SVG Export Plug-In . SVG Version: 6.00 Build 0)  -->
<svg version="1.1" id="Layer_1" xmlns="http://www.w3.org/2000/svg" xmlns:xlink="http://www.w3.org/1999/xlink" x="0px" y="0px"
	 viewBox="0 0 31 28" style="enable-background:new 0 0 31 28;" xml:space="preserve">
<g>
	<path d="M28.5,20.5c-0.7,0-1.2,0.5-1.5,1.1c-0.7,1.6-2.3,2.8-4.2,2.8h-0.7c-0.7,0-1.3-0.6-1.3-1.3s0.6-1.3,1.3-1.3h0.6
		c1.1,0,2-0.9,2-2c0-1.5,0-3.3-0.5-4.3c-0.1-0.1-0.1-0.3-0.2-0.4c-1.3-2.4-4.6-2.9-7-3.5c-0.2-0.1-0.4-0.1-0.6-0.1
		c-0.4-0.1-0.8-0.3-1.1-0.5c-1.2-0.9-2.4-2.1-3.9-2.1h-1.2c-0.4,0-0.7-0.3-0.7-0.6s0.3-0.7,0.7-0.7h2.6c0.4,0,0.7-0.3,0.7-0.7
		c0-0.4-0.3-0.7-0.7-0.7h-2.6c-0.4,0-0.7-0.3-0.7-0.6c0-0.4,0.3-0.7,0.7-0.7h1.3c1.1,0,2-0.9,2-2c0-1.1-0.9-2-2-2H5.4
		c-1.7,0-3,1.3-3,3v15.8c0,1.1,0.9,2,2,2H5c0.7,0,1.3,0.6,1.3,1.3S5.7,24.4,5,24.4H2.3C1.6,24.4,1,25,1,25.7C1,26.4,1.6,27,2.3,27
		h20.5c3.2,0,6-2.1,6.9-5C29.9,21.2,29.3,20.5,28.5,20.5z M18.1,23.1c0,0.7-0.6,1.3-1.3,1.3h-6.6c-0.7,0-1.3-0.6-1.3-1.3
		s0.6-1.3,1.3-1.3h6.6C17.6,21.8,18.1,22.4,18.1,23.1z"/>
	<path d="M22.8,27.5H2.3c-1,0-1.8-0.8-1.8-1.8s0.8-1.8,1.8-1.8H5c0.4,0,0.8-0.4,0.8-0.8S5.4,22.3,5,22.3H4.3c-1.4,0-2.5-1.1-2.5-2.5
		V4c0-1.9,1.6-3.5,3.5-3.5h6.2C12.9,0.5,14,1.6,14,3c0,1.4-1.1,2.4-2.5,2.4h-1.3c-0.1,0-0.2,0.1-0.2,0.1c0,0.1,0.1,0.2,0.2,0.2h2.6
		c0.6,0,1.2,0.5,1.2,1.1S13.5,8,12.9,8h-2.6c-0.1,0-0.2,0.1-0.2,0.1c0,0.1,0.1,0.1,0.2,0.1h1.2c1.4,0,2.6,0.9,3.6,1.8
		c0.2,0.2,0.4,0.3,0.6,0.4c0.3,0.2,0.6,0.4,0.9,0.4l0.2,0c0.1,0,0.3,0,0.4,0.1c0.3,0.1,0.6,0.1,0.9,0.2c2.3,0.5,5.2,1.2,6.4,3.5
		l0.2,0.4c0.6,1.1,0.6,2.9,0.6,4.6c0,1.4-1.2,2.5-2.5,2.5h-0.6c-0.4,0-0.8,0.4-0.8,0.8s0.4,0.8,0.8,0.8h0.7c1.6,0,3.1-1,3.8-2.5
		c0.4-0.9,1.2-1.4,2-1.4c0.6,0,1.1,0.3,1.5,0.7c0.3,0.4,0.4,0.9,0.2,1.4C29.1,25.3,26.1,27.5,22.8,27.5z M2.3,24.9
		c-0.4,0-0.8,0.4-0.8,0.8s0.4,0.8,0.8,0.8h20.4c3,0,5.6-1.9,6.5-4.7c0.1-0.2,0-0.4-0.1-0.5C29,21.1,28.7,21,28.5,21
		c-0.5,0-0.9,0.4-1,0.8c-0.8,1.9-2.6,3.1-4.7,3.1h-0.7c-1,0-1.8-0.8-1.8-1.8c0-1,0.8-1.8,1.8-1.8h0.6c0.8,0,1.5-0.7,1.5-1.5
		c0-1.5,0-3.2-0.5-4.1l-0.2-0.4c-1-1.9-3.6-2.5-5.8-3c-0.3-0.1-0.6-0.1-0.9-0.2c-0.1,0-0.2,0-0.3-0.1l-0.3-0.1
		c-0.4-0.1-0.9-0.3-1.3-0.6c-0.2-0.1-0.4-0.3-0.6-0.5c-1-0.8-2-1.5-3-1.5h-1.2c-0.6,0-1.2-0.5-1.2-1.1S9.6,7,10.2,7h2.6
		C13,7,13,6.9,13,6.9S13,6.7,12.9,6.7h-2.6c-0.6,0-1.2-0.5-1.2-1.2s0.5-1.1,1.2-1.1h1.3C12.4,4.4,13,3.7,13,3c0-0.8-0.7-1.5-1.5-1.5
		H5.4C4,1.5,2.9,2.6,2.9,4v15.8c0,0.8,0.7,1.5,1.5,1.5H5c1,0,1.8,0.8,1.8,1.8c0,1-0.8,1.8-1.8,1.8H2.3z M16.8,24.9h-6.6
		c-1,0-1.8-0.8-1.8-1.8c0-1,0.8-1.8,1.8-1.8h6.6c1,0,1.8,0.8,1.8,1.8C18.6,24.1,17.8,24.9,16.8,24.9z M10.2,22.3
		c-0.4,0-0.8,0.4-0.8,0.8s0.4,0.8,0.8,0.8h6.6c0.4,0,0.8-0.4,0.8-0.8s-0.4-0.8-0.8-0.8H10.2z"/>
</g>
</svg>
