<svg width="24" height="24" viewBox="0 0 24 24" fill="none" xmlns="http://www.w3.org/2000/svg">
<path fill-rule="evenodd" clip-rule="evenodd" d="M15.1557 4.94176C15.4539 4.47853 15.9965 4 16.7567 4C17.5168 4 18.0594 4.47853 18.3576 4.94176C18.6614 5.41359 18.8107 5.9945 18.8107 6.57463C18.8107 7.15476 18.6614 7.73566 18.3576 8.2075C18.0594 8.67073 17.5168 9.14925 16.7567 9.14925C15.9965 9.14925 15.4539 8.67073 15.1557 8.2075C14.8519 7.73566 14.7026 7.15476 14.7026 6.57463C14.7026 5.9945 14.8519 5.41359 15.1557 4.94176Z" fill="black"/>
<path fill-rule="evenodd" clip-rule="evenodd" d="M9.57339 5.93221C10.0139 5.69273 10.5518 5.76255 10.9217 6.10719L14.9576 9.86838C15.4074 10.2875 15.4815 10.9895 15.1298 11.4993L13.4001 14.0068C13.0183 14.5602 12.2756 14.6884 11.7412 14.2931C11.2068 13.8978 11.083 13.1288 11.4647 12.5754L12.577 10.963L9.94596 8.51112L6.06639 10.6201C5.4849 10.9362 4.76602 10.7044 4.46074 10.1023C4.15546 9.50016 4.37937 8.75579 4.96086 8.43967L9.57339 5.93221Z" fill="black"/>
<path fill-rule="evenodd" clip-rule="evenodd" d="M7.16841 16.3138C6.9103 16.3077 6.6506 16.3716 6.41047 16.5058C6.16968 16.6404 5.95219 16.8439 5.78316 17.1071C5.40645 17.6938 4.90131 18.1788 4.30499 18.512C3.70801 18.8457 3.04129 19.0148 2.36369 18.9989L2.35394 18.9987L2.35394 18.9987C1.7497 18.9794 1.16025 18.8135 0.627047 18.5172C0.0483647 18.1956 -0.168976 17.4492 0.141602 16.85C0.45218 16.2508 1.17307 16.0257 1.75175 16.3473C1.96487 16.4657 2.19337 16.5289 2.42234 16.537C2.67884 16.5421 2.93678 16.4782 3.17539 16.3449C3.41618 16.2103 3.63367 16.0067 3.80271 15.7435C4.17942 15.1569 4.68456 14.6719 5.28087 14.3386C5.86996 14.0094 6.52695 13.8404 7.19529 13.8512C7.86363 13.8404 8.52062 14.0094 9.1097 14.3386C9.70602 14.6719 10.2112 15.1569 10.5879 15.7435C10.7569 16.0067 10.9744 16.2103 11.2152 16.3449C11.4553 16.479 11.715 16.5429 11.9731 16.5369C11.991 16.5365 12.009 16.5365 12.0269 16.5369C12.285 16.5429 12.5447 16.479 12.7848 16.3449C13.0256 16.2103 13.2431 16.0067 13.4121 15.7435C13.7888 15.1569 14.294 14.6719 14.8903 14.3386C15.4794 14.0094 16.1364 13.8404 16.8047 13.8512C17.4731 13.8404 18.13 14.0094 18.7191 14.3386C19.3154 14.6719 19.8206 15.1569 20.1973 15.7435C20.3663 16.0067 20.5838 16.2103 20.8246 16.3449C21.0632 16.4782 21.3212 16.5421 21.5777 16.537C21.8066 16.5289 22.0351 16.4657 22.2482 16.3473C22.8269 16.0257 23.5478 16.2508 23.8584 16.85C24.169 17.4492 23.9516 18.1956 23.373 18.5172C22.8398 18.8135 22.2503 18.9794 21.6461 18.9987L21.6363 18.999L21.6363 18.9989C20.9587 19.0148 20.292 18.8457 19.695 18.512C19.0987 18.1788 18.5936 17.6938 18.2168 17.1071C18.0478 16.8439 17.8303 16.6404 17.5895 16.5058C17.3494 16.3716 17.0897 16.3077 16.8316 16.3138C16.8137 16.3142 16.7957 16.3142 16.7778 16.3138C16.5197 16.3077 16.26 16.3716 16.0199 16.5058C15.7791 16.6404 15.5616 16.8439 15.3926 17.1071C15.0159 17.6938 14.5107 18.1788 13.9144 18.512C13.3253 18.8413 12.6683 19.0103 12 18.9995C11.3317 19.0103 10.6747 18.8413 10.0856 18.512C9.48927 18.1788 8.98413 17.6938 8.60742 17.1071C8.43838 16.8439 8.22089 16.6404 7.9801 16.5058C7.73998 16.3716 7.48028 16.3077 7.22217 16.3138C7.20425 16.3142 7.18632 16.3142 7.16841 16.3138Z" fill="black"/>
</svg>
