<?xml version="1.0" encoding="utf-8"?>
<!-- Generator: Adobe Illustrator 24.2.3, SVG Export Plug-In . SVG Version: 6.00 Build 0)  -->
<svg version="1.1" id="Layer_1" xmlns="http://www.w3.org/2000/svg" xmlns:xlink="http://www.w3.org/1999/xlink" x="0px" y="0px"
	 viewBox="0 0 47 47" style="enable-background:new 0 0 47 47;" xml:space="preserve">
<style type="text/css">
	.st0{fill:#FFFFFF;}
</style>
<g>
	<path class="st0" d="M33.3,41.2c-0.5,0-1-0.2-1.4-0.6l-8.1-8.2l-4.5,6c-0.4,0.6-1.2,0.9-1.9,0.8c-0.7-0.1-1.3-0.6-1.6-1.3l-3.6-11
		L5,23.3c-0.7-0.4-1.1-1.1-1.1-1.9c0-0.8,0.5-1.5,1.3-1.8L40.4,6c0.7-0.3,1.5-0.1,2,0.4c0.6,0.5,0.8,1.3,0.6,2l-7.8,31.3
		c-0.2,0.7-0.7,1.3-1.4,1.4C33.7,41.2,33.5,41.2,33.3,41.2z M24.4,27.4l7.8,7.9l6-24.1L10.8,21.7l3.8,1.9c0.5,0.2,0.8,0.7,1,1.2
		l2.7,8.2l2.6-3.4l-0.7-0.7c-0.8-0.8-0.8-2,0-2.8l7.8-7.8c0.8-0.8,2-0.8,2.8,0c0.8,0.8,0.8,2,0,2.8L24.4,27.4z"/>
</g>
</svg>
