<?xml version="1.0" encoding="utf-8"?>
<!-- Generator: Adobe Illustrator 24.2.3, SVG Export Plug-In . SVG Version: 6.00 Build 0)  -->
<svg version="1.1" id="Layer_1" xmlns="http://www.w3.org/2000/svg" xmlns:xlink="http://www.w3.org/1999/xlink" x="0px" y="0px"
	 viewBox="0 0 37 37" style="enable-background:new 0 0 37 37;" xml:space="preserve">
<g>
	<path d="M19,34.4c-8.5,0-15.4-6.9-15.4-15.4c0-8.5,6.9-15.4,15.4-15.4c8.5,0,15.4,6.9,15.4,15.4C34.4,27.5,27.5,34.4,19,34.4z
		 M19,6.4C12,6.4,6.4,12,6.4,19c0,7,5.7,12.6,12.6,12.6c7,0,12.6-5.7,12.6-12.6C31.6,12,26,6.4,19,6.4z"/>
</g>
<g>
	<path d="M24.9,32.5c-0.1,0-0.2,0-0.3,0c-3.1-0.7-6-2-8.1-3.7c-2.5-1.9-4.5-4.3-5.7-6.9c-0.3-0.7,0-1.5,0.6-1.8
		c0.7-0.3,1.5,0,1.8,0.6c1.1,2.2,2.8,4.2,4.9,5.9c1.9,1.4,4.3,2.5,7.1,3.1c0.7,0.2,1.2,0.9,1,1.6C26.1,32,25.5,32.5,24.9,32.5z
		 M29.6,26.5c-2,0-4.1-0.5-6.2-1.4c-2.4-1.1-4.4-3-5.8-5.4c-0.3-0.5-0.2-1.2,0.2-1.6c0.4-0.4,1.1-0.6,1.6-0.3l12.2,6
		c0.5,0.3,0.9,0.9,0.8,1.5c-0.1,0.6-0.6,1.1-1.2,1.1C30.7,26.4,30.1,26.5,29.6,26.5z"/>
</g>
<g>
	<path d="M7,27.6c-0.3,0-0.6-0.1-0.9-0.3c-0.5-0.4-0.6-1-0.4-1.6c1-2.5,2.8-4.7,5.1-6.2c2.2-1.5,4.9-2.2,7.7-2.2
		c0.6,0,1.1,0.4,1.3,1c0.2,0.6-0.1,1.2-0.6,1.5L7.8,27.3C7.5,27.5,7.3,27.6,7,27.6z M4.7,19.2c-0.3,0-0.7-0.1-0.9-0.4
		c-0.6-0.5-0.6-1.4-0.1-1.9c2-2.2,4.6-4.1,7.4-5.2c3-1.2,6-1.7,9-1.5c0.8,0.1,1.3,0.7,1.3,1.5c-0.1,0.8-0.7,1.3-1.5,1.3
		c-2.6-0.2-5.2,0.3-7.8,1.3c-2.4,1-4.6,2.6-6.4,4.5C5.4,19,5.1,19.2,4.7,19.2z"/>
</g>
<g>
	<path d="M24,24.8c-0.3,0-0.5-0.1-0.8-0.2c-0.6-0.4-0.8-1.3-0.4-1.9c1.5-2.2,2.4-4.7,2.8-7.3c0.4-2.6,0.1-5.3-0.8-7.7
		c-0.3-0.7,0.1-1.5,0.8-1.8c0.7-0.3,1.5,0.1,1.8,0.8c1.1,2.9,1.4,6,1,9.1c-0.4,3.1-1.5,5.9-3.2,8.5C24.9,24.6,24.4,24.8,24,24.8z
		 M18.5,20c-0.1,0-0.2,0-0.3,0c-0.6-0.1-1-0.7-1.1-1.3L16.3,5c0-0.6,0.3-1.2,0.9-1.4c0.6-0.2,1.2,0,1.6,0.4c1.7,2.1,2.7,4.8,2.8,7.5
		c0.1,2.7-0.5,5.4-1.9,7.7C19.4,19.7,19,20,18.5,20z"/>
</g>
</svg>
